# xmcd CD database file generated by MAGIX-FreeDB- v3.0beta1
#
# Track frame offsets:
#	150
#	24870
#	59275
#	78922
#	110490
#	128722
#	167185
#	192325
#	221405
#	268105
#	294450
#
# Disc length: 4335
#
# Revision: 91
# Processed by: cddbd v1.5.2PL0 Copyright (c) Steve Scherf et al.
# Submitted via: MAGIX-FreeDB- v3.0beta1
#
DISCID=9810ed0b
DTITLE=Led Zeppelin - Remasters - CD 2 (1990)
DYEAR=1990
DGENRE=Rock
TTITLE0=The Song remains the Same
TTITLE1=The Rain Song
TTITLE2=D'yer Mak'er
TTITLE3=No Quarter
TTITLE4=Houses of the Holy
TTITLE5=Kashmir
TTITLE6=Trampled Underfoot
TTITLE7=Nobody's fault but mine
TTITLE8=Achilles last Stand
TTITLE9=All my love
TTITLE10=In The Evening
EXTD=YEAR: 1990
EXTT0=YEAR: 1990
EXTT1=YEAR: 1990
EXTT2=YEAR: 1990
EXTT3=YEAR: 1990
EXTT4=YEAR: 1990
EXTT5=YEAR: 1990
EXTT6=YEAR: 1990
EXTT7=YEAR: 1990
EXTT8=YEAR: 1990
EXTT9=YEAR: 1990
EXTT10=YEAR: 1990
PLAYORDER=
